<svg width="37" height="37" viewBox="0 0 37 37" fill="none" xmlns="http://www.w3.org/2000/svg">
<path d="M3.08357 26.7642C1.46699 20.2979 0.658696 17.0666 2.3563 14.8923C4.0539 12.718 7.38692 12.718 14.0511 12.718H22.7746C29.4406 12.718 32.7718 12.718 34.4694 14.8923C36.167 17.0666 35.3587 20.2998 33.7421 26.7642C32.7134 30.8773 32.2009 32.9328 30.6672 34.1311C29.1335 35.3276 27.0139 35.3276 22.7746 35.3276H14.0511C9.8118 35.3276 7.69215 35.3276 6.15847 34.1311C4.62479 32.9328 4.11042 30.8773 3.08357 26.7642Z" stroke="#67EFEF" stroke-width="2.82619"/>
<path d="M32.5437 13.6598L31.2059 8.75167C30.6897 6.85812 30.4316 5.91229 29.9021 5.1982C29.3742 4.48876 28.6573 3.94225 27.8333 3.62119C27.0043 3.29712 26.0246 3.29712 24.0651 3.29712M4.28174 13.6598L5.61947 8.75167C6.13572 6.85812 6.39385 5.91229 6.92329 5.1982C7.45118 4.48876 8.16811 3.94225 8.99206 3.62119C9.82108 3.29712 10.8008 3.29712 12.7603 3.29712" stroke="#67EFEF" stroke-width="2.82619"/>
<path d="M12.7605 3.29721C12.7605 2.79751 12.959 2.31828 13.3123 1.96493C13.6657 1.61159 14.1449 1.41309 14.6446 1.41309H22.1811C22.6808 1.41309 23.1601 1.61159 23.5134 1.96493C23.8668 2.31828 24.0653 2.79751 24.0653 3.29721C24.0653 3.79692 23.8668 4.27615 23.5134 4.62949C23.1601 4.98284 22.6808 5.18134 22.1811 5.18134H14.6446C14.1449 5.18134 13.6657 4.98284 13.3123 4.62949C12.959 4.27615 12.7605 3.79692 12.7605 3.29721Z" stroke="#67EFEF" stroke-width="2.82619"/>
<path d="M10.8762 20.2544V27.7909M25.9493 20.2544V27.7909M18.4127 20.2544V27.7909" stroke="#67EFEF" stroke-width="2.82619" stroke-linecap="round" stroke-linejoin="round"/>
</svg>
