<svg width="19" height="19" viewBox="0 0 19 19" fill="none" xmlns="http://www.w3.org/2000/svg">
<g clip-path="url(#clip0_135_1089)">
<path d="M13.0628 1.53613H5.379C3.25718 1.53613 1.53711 3.25621 1.53711 5.37803V13.0618C1.53711 15.1836 3.25718 16.9037 5.379 16.9037H13.0628C15.1846 16.9037 16.9047 15.1836 16.9047 13.0618V5.37803C16.9047 3.25621 15.1846 1.53613 13.0628 1.53613Z" stroke="#430D0D" stroke-width="1.84411" stroke-linecap="round" stroke-linejoin="round"/>
<path d="M12.2954 8.73694C12.3903 9.37642 12.281 10.0295 11.9833 10.6033C11.6855 11.1772 11.2144 11.6425 10.637 11.9331C10.0595 12.2238 9.40513 12.325 8.76687 12.2223C8.12861 12.1196 7.53898 11.8182 7.08186 11.3611C6.62473 10.904 6.32338 10.3143 6.22068 9.67606C6.11797 9.0378 6.21914 8.38341 6.50979 7.80595C6.80044 7.2285 7.26577 6.7574 7.83959 6.45965C8.41341 6.16191 9.06651 6.05268 9.70599 6.14751C10.3583 6.24423 10.9622 6.54819 11.4285 7.01447C11.8947 7.48076 12.1987 8.08465 12.2954 8.73694Z" stroke="#430D0D" stroke-width="1.84411" stroke-linecap="round" stroke-linejoin="round"/>
<path d="M13.4453 4.99512H13.4547" stroke="#430D0D" stroke-width="1.84411" stroke-linecap="round" stroke-linejoin="round"/>
</g>
<defs>
<clipPath id="clip0_135_1089">
<rect width="18.4411" height="18.4411" fill="white"/>
</clipPath>
</defs>
</svg>
