<svg width="18" height="18" viewBox="0 0 18 18" fill="none" xmlns="http://www.w3.org/2000/svg">
<path d="M10.0133 12.1156C10.172 12.1885 10.3508 12.2051 10.5202 12.1628C10.6896 12.1205 10.8396 12.0217 10.9454 11.8828L11.2181 11.5255C11.3613 11.3346 11.5469 11.1797 11.7603 11.073C11.9737 10.9663 12.209 10.9108 12.4476 10.9108H14.7527C15.1603 10.9108 15.5511 11.0727 15.8393 11.3609C16.1275 11.6491 16.2894 12.04 16.2894 12.4476V14.7527C16.2894 15.1603 16.1275 15.5511 15.8393 15.8393C15.5511 16.1275 15.1603 16.2894 14.7527 16.2894C11.0845 16.2894 7.56661 14.8323 4.97283 12.2385C2.37905 9.64472 0.921875 6.12679 0.921875 2.45863C0.921875 2.05106 1.08378 1.66018 1.37198 1.37198C1.66018 1.08378 2.05106 0.921875 2.45863 0.921875H4.76377C5.17134 0.921875 5.56222 1.08378 5.85042 1.37198C6.13862 1.66018 6.30053 2.05106 6.30053 2.45863V4.76377C6.30053 5.00234 6.24498 5.23764 6.13829 5.45103C6.03159 5.66441 5.87668 5.85003 5.68582 5.99317L5.32622 6.26288C5.18516 6.37058 5.08573 6.52381 5.04483 6.69651C5.00393 6.86921 5.02408 7.05075 5.10186 7.21029C6.15198 9.3432 7.8791 11.0682 10.0133 12.1156Z" stroke="#430D0D" stroke-width="1.84411" stroke-linecap="round" stroke-linejoin="round"/>
</svg>
